<?xml version="1.0" standalone="no"?>
<!DOCTYPE svg PUBLIC "-//W3C//DTD SVG 20010904//EN"
 "http://www.w3.org/TR/2001/REC-SVG-20010904/DTD/svg10.dtd">
<svg version="1.0" xmlns="http://www.w3.org/2000/svg"
 width="700.000000pt" height="432.000000pt" viewBox="0 0 700.000000 432.000000"
 preserveAspectRatio="xMidYMid meet">
<metadata>
Created by potrace 1.15, written by Peter Selinger 2001-2017
</metadata>
<g transform="translate(0.000000,432.000000) scale(0.100000,-0.100000)"
fill="#ffffff" stroke="none">
<path d="M262 2338 l3 -523 210 -3 c239 -3 344 8 428 45 70 32 133 99 150 160
11 42 27 58 27 28 0 -30 49 -112 89 -148 85 -77 198 -113 331 -104 47 3 106
14 132 24 97 38 176 114 193 186 l7 27 -117 0 c-116 0 -118 0 -152 -30 -29
-26 -42 -30 -89 -30 -76 0 -118 22 -144 74 -11 23 -20 52 -20 64 0 22 1 22
268 24 305 3 276 -8 261 103 -17 128 -103 242 -218 286 -81 32 -251 32 -333 0
-111 -43 -191 -140 -218 -263 l-13 -56 -25 50 c-27 55 -90 103 -150 114 l-34
7 38 30 c54 45 74 96 74 192 0 123 -33 185 -125 234 -50 26 -51 26 -313 29
l-262 3 2 -523z m415 296 c30 -19 48 -80 34 -116 -15 -41 -54 -61 -119 -62
l-57 -1 -3 89 c-4 120 -4 120 66 111 31 -3 67 -13 79 -21z m846 -258 c36 -14
87 -69 87 -92 0 -11 -26 -14 -145 -14 -95 0 -145 4 -145 10 0 30 35 73 73 91
50 22 86 24 130 5z m-795 -146 c57 -26 78 -84 51 -143 -20 -43 -64 -60 -158
-61 l-86 -1 -3 99 c-1 55 0 106 2 113 9 21 142 17 194 -7z"/>
<path d="M2920 2695 l0 -165 -75 0 -75 0 0 105 0 105 -125 0 -125 0 0 -105 0
-105 -40 0 -40 0 0 -105 0 -105 40 0 40 0 0 -255 0 -256 123 3 122 3 3 253 2
253 73 -3 72 -3 5 -250 5 -250 239 3 c217 3 245 5 312 26 132 42 247 143 311
273 l28 58 6 -45 c17 -114 56 -190 132 -256 70 -60 119 -78 222 -78 99 0 134
12 193 67 l32 31 0 -37 c0 -20 5 -37 10 -38 6 0 24 -1 40 -1 17 0 68 1 115 1
l85 1 0 327 c0 196 4 323 9 318 5 -6 19 -28 31 -50 13 -22 63 -112 113 -200
49 -88 108 -193 130 -233 l39 -73 -25 -47 c-48 -90 -84 -158 -137 -257 -29
-55 -57 -104 -61 -110 -5 -5 -9 -15 -9 -22 0 -10 31 -13 138 -13 l138 0 18 38
c10 20 98 186 195 367 98 182 202 375 231 430 29 55 68 127 86 161 19 33 34
64 34 67 0 3 -63 5 -141 4 l-140 -2 -92 -177 c-50 -98 -94 -178 -98 -178 -4 0
-39 64 -79 143 -40 78 -84 159 -97 180 l-23 37 -255 0 -255 0 0 -30 c0 -16 -2
-30 -5 -30 -2 0 -21 11 -41 25 -87 59 -216 69 -317 26 -60 -26 -142 -102 -171
-159 l-22 -44 -13 82 c-7 45 -21 105 -32 134 -42 108 -159 230 -269 279 -92
41 -136 47 -377 47 l-233 0 0 -165z m477 -88 c56 -30 105 -80 129 -132 35 -74
34 -205 -2 -281 -42 -89 -129 -141 -254 -151 -45 -3 -80 -2 -80 3 0 24 -1 533
0 558 l0 28 88 -4 c55 -3 99 -11 119 -21z m942 -304 c49 -37 66 -70 66 -131 0
-109 -69 -171 -180 -159 -31 3 -67 14 -84 26 -80 57 -81 204 -1 261 58 41 146
42 199 3z"/>
<path d="M2080 2535 c-134 -38 -208 -135 -198 -260 8 -96 57 -138 203 -174 80
-20 115 -42 115 -71 0 -21 -27 -46 -61 -53 -32 -8 -130 16 -181 45 -21 12 -39
20 -41 17 -9 -10 -87 -157 -87 -163 0 -12 103 -57 167 -72 75 -18 201 -14 263
7 119 41 188 130 189 245 2 109 -69 180 -209 209 -77 16 -110 36 -110 65 0 51
101 63 202 25 11 -4 27 16 57 74 l42 80 -53 16 c-77 24 -230 29 -298 10z"/>
<path d="M5680 2118 c-154 -78 -100 -309 73 -312 67 0 77 7 77 55 l0 39 -38
-6 c-77 -12 -125 74 -69 126 17 17 31 21 65 17 l42 -5 0 39 c0 33 -5 41 -30
54 -40 21 -68 19 -120 -7z"/>
<path d="M5960 2118 c-50 -14 -90 -46 -106 -84 -42 -101 13 -202 122 -224 123
-26 226 45 226 155 0 118 -114 190 -242 153z m93 -89 c29 -16 37 -28 37 -63 0
-42 -26 -66 -71 -66 -66 0 -92 68 -44 115 27 28 45 31 78 14z"/>
<path d="M6365 2111 c-47 -25 -45 -25 -45 -6 0 11 -12 15 -50 15 l-50 0 0
-155 0 -155 49 0 49 0 4 106 c3 90 6 108 23 120 22 16 34 17 55 4 11 -7 16
-36 20 -117 l5 -108 50 0 50 0 5 103 c4 88 8 106 24 118 11 8 23 14 26 14 3 0
15 -6 26 -14 16 -12 20 -30 24 -118 l5 -103 50 0 50 0 0 127 c0 126 0 128 -28
155 -36 37 -101 39 -146 5 l-31 -23 -28 21 c-42 31 -90 35 -137 11z"/>
</g>
</svg>
