<?xml version="1.0" standalone="no"?>
<!DOCTYPE svg PUBLIC "-//W3C//DTD SVG 20010904//EN"
 "http://www.w3.org/TR/2001/REC-SVG-20010904/DTD/svg10.dtd">
<svg version="1.0" xmlns="http://www.w3.org/2000/svg"
 width="600.000000pt" height="212.000000pt" viewBox="0 0 600.000000 212.000000"
 preserveAspectRatio="xMidYMid meet">
<metadata>
Created by potrace 1.15, written by Peter Selinger 2001-2017
</metadata>
<g transform="translate(0.000000,212.000000) scale(0.100000,-0.100000)"
fill="#ffffff" stroke="none">
<path d="M570 2004 c-111 -19 -153 -31 -208 -55 -126 -56 -214 -145 -272 -272
-40 -89 -54 -178 -48 -317 5 -105 8 -125 36 -183 50 -108 143 -185 260 -216
78 -21 198 -30 284 -21 93 10 176 26 197 39 7 5 26 69 42 147 16 77 41 193 55
259 14 66 28 135 31 153 l6 32 -226 0 -225 0 -16 -72 c-9 -40 -19 -88 -22
-105 l-6 -33 101 0 c116 0 109 9 85 -108 -24 -119 -19 -112 -77 -112 -189 0
-300 139 -268 335 32 193 154 310 337 322 93 6 197 -15 261 -53 45 -26 63 -25
63 5 0 10 11 51 25 91 34 101 34 104 -27 123 -104 31 -315 54 -388 41z"/>
<path d="M4197 1993 c-3 -5 -8 -24 -11 -43 -8 -39 -45 -218 -81 -385 -13 -60
-35 -164 -49 -230 -14 -66 -37 -173 -51 -237 -14 -65 -25 -124 -25 -133 0 -13
19 -15 119 -15 l120 0 11 58 c6 31 22 107 35 167 13 61 36 166 50 235 34 161
69 327 99 465 13 60 22 113 19 117 -6 10 -230 10 -236 1z"/>
<path d="M3382 1843 c-17 -82 -45 -213 -62 -293 -83 -389 -120 -569 -120 -586
0 -12 20 -14 122 -12 l123 3 16 75 c9 41 27 126 40 188 l23 112 91 0 c147 0
261 39 342 119 48 46 71 85 89 156 29 108 9 221 -49 283 -72 76 -185 102 -443
102 l-141 0 -31 -147z m371 -75 c34 -18 46 -40 47 -81 0 -82 -65 -139 -174
-152 l-58 -8 6 34 c4 19 16 76 27 127 l21 92 54 0 c31 0 65 -5 77 -12z"/>
<path d="M1472 1741 c-18 -5 -50 -20 -72 -35 l-40 -26 0 25 0 25 -114 0 -115
0 -10 -52 c-5 -29 -12 -66 -15 -83 -3 -16 -23 -118 -46 -225 -67 -317 -80
-384 -80 -403 0 -16 10 -17 117 -15 l118 3 22 105 c63 288 75 331 107 373 54
71 120 95 203 74 l31 -8 21 98 c12 54 24 106 26 115 1 10 0 20 -3 22 -16 9
-120 14 -150 7z"/>
<path d="M1865 1741 c-97 -13 -145 -30 -155 -54 -16 -37 -51 -189 -46 -195 3
-3 32 7 63 21 69 31 187 52 236 43 51 -10 87 -41 87 -77 l0 -29 -102 0 c-163
0 -281 -36 -351 -107 -87 -86 -89 -250 -4 -340 75 -80 257 -89 353 -18 l30 23
-4 -29 -4 -29 104 0 105 0 22 118 c13 64 34 172 47 238 50 252 21 352 -121
415 -47 21 -176 30 -260 20z m145 -461 c0 -6 -11 -33 -25 -59 -43 -86 -145
-126 -199 -79 -71 60 31 145 177 147 26 1 47 -4 47 -9z"/>
<path d="M2791 1740 c-24 -5 -54 -16 -67 -25 -29 -19 -34 -19 -34 0 0 12 -19
15 -115 15 -63 0 -115 -2 -115 -4 0 -5 -59 -284 -96 -456 -39 -180 -64 -301
-64 -311 0 -5 53 -9 118 -9 l119 0 21 98 c12 53 34 153 48 222 43 200 91 273
184 274 109 2 109 -16 -7 -566 l-5 -28 121 0 c89 0 123 3 125 13 2 6 16 71 30
142 15 72 37 171 48 220 31 130 29 226 -4 291 -27 50 -75 96 -121 113 -39 15
-138 21 -186 11z"/>
<path d="M4745 1744 c-22 -3 -70 -11 -107 -20 -65 -15 -68 -18 -78 -53 -21
-79 -41 -174 -37 -177 2 -2 30 7 63 20 82 33 174 50 230 41 54 -8 94 -42 94
-78 0 -25 0 -25 -127 -29 -144 -5 -241 -32 -307 -84 -103 -82 -117 -263 -28
-358 79 -83 259 -94 358 -21 l30 23 -4 -29 -4 -29 105 0 105 0 7 43 c4 23 22
123 41 222 57 295 56 362 -7 438 -58 70 -186 105 -334 91z m120 -476 c-32
-105 -129 -169 -206 -138 -61 26 -41 107 33 134 57 20 74 23 131 25 46 1 48 0
42 -21z"/>
<path d="M5643 1740 c-23 -5 -55 -16 -72 -25 -28 -14 -31 -14 -31 0 0 13 -19
15 -119 15 l-118 0 -7 -57 c-4 -32 -18 -107 -31 -168 -14 -60 -36 -164 -51
-230 -14 -66 -34 -159 -45 -206 -29 -130 -38 -119 100 -119 l119 0 7 33 c88
455 124 544 225 562 49 8 84 -7 99 -43 14 -32 3 -105 -53 -367 -13 -60 -27
-127 -31 -147 l-6 -38 120 0 c117 0 121 1 126 23 7 30 52 242 76 355 21 106
25 213 7 263 -17 52 -61 102 -110 126 -50 25 -145 36 -205 23z"/>
<path d="M2070 771 c-45 -9 -60 -18 -55 -34 2 -7 -25 -37 -60 -67 -35 -30 -64
-58 -65 -62 0 -4 24 -9 53 -11 50 -3 49 -3 -14 -5 -49 -2 -70 -7 -82 -20 -10
-10 -17 -21 -17 -25 0 -3 37 -8 83 -10 l82 -3 -100 -2 c-94 -2 -125 -10 -125
-34 0 -4 73 -9 163 -11 l162 -3 -162 -2 -163 -2 0 -25 0 -24 158 -4 157 -3
-157 -2 c-151 -2 -158 -3 -158 -22 0 -19 7 -20 208 -22 190 -2 195 -3 55 -5
l-153 -4 0 -24 0 -24 153 -4 152 -3 -152 -2 c-146 -2 -153 -3 -153 -22 0 -20
5 -20 178 -18 l177 3 5 147 c6 178 6 179 112 185 55 4 89 0 138 -16 38 -12 68
-17 74 -11 14 14 -3 60 -33 91 -36 35 -84 45 -139 26 -35 -12 -43 -12 -53 -1
-9 12 -3 14 36 14 39 0 46 3 43 17 -6 33 -55 45 -187 49 -69 2 -142 0 -161 -5z"/>
<path d="M2736 578 c-23 -63 -96 -272 -96 -276 0 -2 17 -2 38 0 34 3 38 6 46
41 9 36 11 37 56 37 46 0 47 -1 59 -40 l12 -40 144 0 145 0 0 25 c0 24 -3 25
-55 25 l-55 0 0 35 c0 34 1 35 40 35 36 0 40 3 40 25 0 23 -4 25 -40 25 -36 0
-40 3 -40 25 0 23 3 25 50 25 49 0 50 1 50 30 l0 30 -90 0 -89 0 -3 -132 -3
-133 -27 70 c-15 39 -41 107 -58 153 l-31 82 -39 0 c-36 0 -39 -3 -54 -42z"/>
<path d="M3736 608 c-3 -7 -7 -49 -10 -93 -3 -44 -9 -110 -12 -147 l-7 -68 35
0 c33 0 36 2 42 38 3 20 6 57 6 82 l1 45 18 -47 c10 -25 22 -63 25 -83 7 -34
9 -36 39 -33 30 3 33 7 58 82 l26 79 6 -48 c4 -26 7 -63 7 -81 0 -34 0 -34 48
-34 l48 0 -16 158 -15 157 -45 0 -44 0 -30 -79 -30 -79 -29 82 -30 81 -44 0
c-26 0 -45 -5 -47 -12z"/>
<path d="M5860 612 c0 -5 9 -17 19 -26 31 -28 64 -116 64 -171 0 -61 -32 -137
-75 -182 -16 -17 -57 -43 -91 -58 -75 -34 -151 -31 -223 9 -55 31 -71 26 -29
-9 65 -53 202 -66 286 -28 60 27 124 95 144 151 21 63 19 160 -4 214 -27 65
-91 134 -91 100z"/>
<path d="M2273 579 c-9 -9 -13 -50 -13 -129 0 -146 3 -150 111 -150 45 0 80 5
87 12 7 7 12 35 12 64 0 43 3 53 20 57 27 7 25 32 -5 102 -24 53 -27 57 -53
50 -33 -8 -45 -8 -102 0 -31 5 -49 3 -57 -6z"/>
<path d="M3170 441 l0 -141 41 0 41 0 -6 44 c-10 63 8 65 41 6 27 -49 29 -50
76 -50 26 0 47 4 47 8 0 5 -17 33 -38 62 l-38 53 23 23 c28 28 30 73 4 105
-17 21 -29 24 -105 28 l-86 3 0 -141z"/>
<path d="M3474 571 c-32 -14 -73 -68 -80 -107 -20 -105 69 -189 181 -171 112
18 154 166 70 247 -30 29 -43 34 -92 37 -32 1 -67 -1 -79 -6z m93 -56 c64 -45
21 -201 -45 -166 -47 25 -54 129 -11 164 26 21 29 21 56 2z"/>
<path d="M4097 574 c-4 -4 -7 -67 -7 -141 l0 -133 95 0 c95 0 95 0 95 25 0 23
-3 25 -50 25 l-50 0 0 35 c0 34 1 35 40 35 36 0 40 3 40 25 0 23 -4 25 -40 25
-36 0 -40 3 -40 25 0 23 3 25 51 25 49 0 50 1 47 28 -3 27 -3 27 -88 30 -47 1
-89 0 -93 -4z"/>
<path d="M4290 570 c0 -5 16 -38 36 -74 l35 -65 -35 -56 c-20 -30 -36 -60 -36
-65 0 -6 15 -10 33 -10 26 0 36 7 52 36 l21 36 19 -36 c18 -34 23 -36 67 -36
27 0 48 2 48 5 0 3 -17 36 -38 73 l-38 67 21 35 c11 20 28 46 37 59 21 30 15
41 -22 41 -23 0 -33 -7 -45 -30 -9 -16 -20 -30 -25 -30 -5 0 -16 14 -25 30
-14 27 -21 30 -60 30 -25 0 -45 -4 -45 -10z"/>
<path d="M4549 578 c0 -2 -1 -65 -2 -141 l-2 -137 43 0 42 0 0 140 0 140 -40
0 c-22 0 -40 -1 -41 -2z"/>
<path d="M4722 560 c-33 -21 -72 -87 -72 -125 0 -11 9 -39 20 -63 15 -33 29
-47 62 -62 77 -35 179 -20 162 23 -4 12 -18 17 -51 17 -59 0 -93 32 -93 88 0
29 7 46 27 66 24 25 32 27 71 21 43 -6 43 -6 40 22 -3 27 -5 28 -68 31 -51 2
-72 -2 -98 -18z"/>
<path d="M4954 561 c-50 -31 -64 -58 -64 -127 0 -52 4 -67 25 -93 47 -55 155
-67 215 -23 l28 21 5 -20 c4 -16 12 -20 34 -17 22 2 28 8 28 28 0 19 -6 26
-26 28 -24 3 -25 5 -21 61 5 69 -14 113 -61 141 -42 26 -121 26 -163 1z m116
-51 c15 -15 20 -33 20 -74 0 -47 -4 -57 -26 -75 -49 -38 -89 8 -81 92 6 72 46
98 87 57z"/>
<path d="M5674 532 c-21 -16 -45 -36 -53 -45 -9 -11 -28 -17 -57 -17 -59 0
-94 -17 -94 -46 0 -48 67 -58 124 -19 38 26 56 31 56 16 0 -16 -69 -61 -94
-61 -33 0 -34 -18 -1 -26 38 -9 71 3 114 41 45 41 76 48 40 9 -46 -51 -101
-84 -137 -84 -29 0 -33 -2 -22 -15 16 -19 73 -19 108 -1 15 8 47 35 72 60 38
40 50 46 85 46 48 0 79 19 74 45 -7 33 -53 40 -105 15 -53 -26 -67 -21 -28 9
16 12 41 21 62 21 29 0 33 2 22 15 -25 30 -117 10 -143 -32 -9 -15 -37 -17
-37 -3 0 5 19 24 43 41 34 25 49 30 80 26 41 -6 46 -1 20 19 -31 23 -86 17
-129 -14z"/>
<path d="M3985 260 c-97 -14 -161 -32 -214 -58 -69 -34 -82 -60 -17 -32 147
63 388 72 641 26 83 -15 184 -32 225 -38 100 -13 276 -3 378 21 88 22 182 64
182 82 0 7 -7 8 -17 4 -117 -50 -210 -65 -395 -65 -123 0 -184 5 -261 21 -219
44 -396 58 -522 39z"/>
</g>
</svg>
