<?xml version="1.0" standalone="no"?>
<!DOCTYPE svg PUBLIC "-//W3C//DTD SVG 20010904//EN"
 "http://www.w3.org/TR/2001/REC-SVG-20010904/DTD/svg10.dtd">
<svg version="1.0" xmlns="http://www.w3.org/2000/svg"
 width="1084.000000pt" height="412.000000pt" viewBox="0 0 1084.000000 412.000000"
 preserveAspectRatio="xMidYMid meet">
<metadata>
Created by potrace 1.15, written by Peter Selinger 2001-2017
</metadata>
<g transform="translate(0.000000,412.000000) scale(0.100000,-0.100000)"
fill="#ffffff" stroke="none">
<path d="M2 4094 c3 -24 10 -28 69 -43 37 -9 82 -29 101 -43 42 -32 58 -64
248 -503 84 -192 232 -534 330 -760 98 -225 183 -422 190 -437 10 -21 20 -28
42 -28 25 0 32 7 48 43 10 23 149 364 310 757 160 393 309 752 330 796 55 112
106 155 228 190 6 2 12 15 12 29 l0 25 -285 0 -285 0 0 -25 c0 -14 6 -27 13
-29 102 -28 128 -40 151 -67 37 -44 33 -80 -23 -232 -47 -128 -367 -916 -408
-1007 l-21 -45 -25 55 c-37 79 -393 900 -432 995 -18 44 -39 108 -46 142 -11
54 -11 64 4 87 23 34 64 54 129 64 48 6 53 10 56 35 l3 27 -371 0 -371 0 3
-26z"/>
<path d="M2522 4093 c3 -25 8 -29 50 -35 65 -9 126 -45 160 -93 29 -41 157
-329 538 -1212 l204 -473 32 0 31 0 313 768 c312 764 354 861 393 914 28 38
85 76 138 91 37 11 45 17 47 40 l3 27 -281 0 -281 0 3 -26 c3 -23 10 -29 56
-40 67 -17 102 -40 118 -79 24 -57 15 -82 -286 -818 -101 -246 -184 -446 -185
-445 -3 3 -219 502 -406 936 -131 302 -134 360 -20 396 25 8 60 16 76 18 24 2
31 8 33 31 l3 27 -371 0 -371 0 3 -27z"/>
<path d="M5381 3829 l-1 -266 -122 -6 c-349 -19 -663 -163 -923 -422 -117
-117 -195 -224 -270 -367 -82 -158 -125 -298 -162 -523 l-8 -49 -380 -67
c-209 -37 -393 -72 -410 -78 -21 -7 86 -10 381 -8 l411 3 6 -86 c21 -319 179
-668 407 -900 124 -126 252 -213 445 -302 148 -68 250 -97 465 -135 l45 -8 60
-302 c33 -166 63 -304 66 -307 8 -8 19 257 19 449 l0 152 38 7 c20 3 60 6 88
6 28 0 90 7 137 15 289 50 579 216 758 432 120 146 252 366 318 535 38 96 18
87 -38 -16 -90 -170 -174 -296 -246 -373 l-70 -75 -306 323 -307 324 52 3 c28
1 1151 56 2496 122 1345 66 2461 121 2480 123 124 10 -403 20 -2730 53 -1438
20 -2615 37 -2616 38 -6 7 274 254 298 262 22 8 83 10 184 6 l151 -5 155 364
c85 200 153 366 151 369 -5 5 -120 -112 -464 -469 l-225 -233 -63 338 c-35
187 -78 413 -96 504 -32 165 -32 165 -11 168 29 5 142 -14 346 -58 230 -49
240 -51 240 -41 0 12 -204 106 -319 145 -56 20 -149 45 -204 57 -56 11 -103
22 -106 24 -2 2 -28 120 -57 262 -30 142 -56 263 -58 268 -3 6 -5 -110 -5
-256z m-9 -1001 c-1 -337 -4 -621 -5 -631 -2 -14 -34 9 -137 95 l-135 113 -6
85 c-4 47 -10 137 -14 201 l-7 117 -281 117 c-155 65 -284 120 -286 122 -9 7
65 75 148 138 193 146 472 252 666 254 l61 1 -4 -612z m-593 -127 l289 -296
-474 -84 c-261 -46 -477 -82 -480 -78 -10 10 26 179 61 283 44 134 109 260
185 364 88 119 100 132 117 119 7 -6 143 -145 302 -308z m391 -811 l-175 -169
-135 6 -135 5 -100 -281 c-55 -154 -104 -281 -108 -281 -13 0 -108 100 -159
167 -133 173 -230 424 -245 630 l-6 83 354 3 c195 1 473 3 619 4 l265 2 -175
-169z m342 70 c46 -53 105 -121 131 -152 l48 -57 20 -133 c10 -73 21 -147 24
-164 5 -30 18 -37 315 -180 170 -82 310 -153 310 -157 0 -14 -182 -126 -295
-182 -121 -60 -242 -98 -359 -114 -84 -12 -255 -15 -280 -5 -14 6 -16 70 -16
626 0 374 4 618 9 616 5 -1 47 -46 93 -98z m-408 -520 c20 -107 53 -283 75
-390 22 -107 38 -197 35 -199 -7 -7 -128 20 -224 51 -160 50 -415 189 -415
226 0 6 108 131 239 278 200 223 241 264 248 248 4 -10 23 -107 42 -214z"/>
<path d="M2144 3710 c-106 -22 -207 -99 -247 -188 -43 -98 -32 -251 27 -387
l24 -53 -91 -53 c-49 -30 -123 -85 -163 -122 -201 -188 -213 -446 -26 -566
122 -78 319 -80 477 -5 30 14 85 49 122 78 l68 52 72 -61 c97 -83 169 -117
259 -123 158 -10 275 73 329 233 15 47 15 50 -1 62 -26 19 -30 17 -54 -32 -51
-105 -176 -130 -295 -60 -22 13 -66 50 -98 83 l-59 59 47 64 c26 35 86 129
133 209 111 186 146 225 218 241 47 11 54 15 54 36 l0 23 -215 0 -215 0 0 -24
c0 -17 9 -27 30 -36 71 -30 78 -130 16 -255 -33 -66 -108 -177 -124 -182 -7
-3 -135 190 -218 326 -45 74 -56 55 92 150 131 84 183 155 192 259 13 149 -91
262 -253 276 -33 2 -78 1 -101 -4z m146 -99 c111 -58 104 -230 -14 -339 -54
-50 -135 -97 -146 -86 -15 16 -69 182 -76 233 -19 145 117 256 236 192z m-259
-693 c23 -46 86 -149 140 -229 55 -80 99 -148 99 -151 0 -9 -92 -74 -138 -97
-131 -67 -294 -11 -353 121 -49 111 -26 224 67 327 36 40 126 111 141 111 1 0
21 -37 44 -82z"/>
<path d="M9702 2717 c-5 -7 -44 -100 -87 -207 -102 -256 -119 -290 -156 -303
-16 -6 -29 -17 -29 -24 0 -10 24 -13 90 -13 73 0 90 3 90 15 0 9 -9 15 -24 15
-42 0 -46 19 -19 88 l25 63 100 -3 100 -3 24 -60 c27 -65 25 -85 -6 -85 -11 0
-20 -7 -20 -15 0 -12 19 -15 110 -15 91 0 110 3 110 15 0 8 -7 15 -16 15 -37
0 -71 60 -163 287 -52 128 -100 234 -107 237 -7 3 -17 -1 -22 -7z m27 -219
c18 -46 36 -89 38 -95 4 -10 -15 -13 -77 -13 -62 0 -81 3 -77 13 36 92 73 177
77 177 3 0 20 -37 39 -82z"/>
<path d="M7702 2548 c-39 -95 -82 -203 -97 -241 -16 -38 -39 -77 -56 -91 -46
-39 -37 -46 51 -46 61 0 80 3 80 14 0 7 -13 16 -30 20 -36 7 -37 17 -9 90 l22
56 99 0 99 0 20 -47 c29 -68 30 -97 2 -101 -13 -2 -23 -10 -23 -18 0 -11 21
-14 105 -14 84 0 105 3 105 14 0 8 -9 17 -20 21 -31 10 -52 48 -128 235 -115
284 -113 280 -132 280 -13 0 -35 -42 -88 -172z m135 -155 c-3 -2 -38 -3 -80
-1 l-75 3 32 80 c18 44 36 89 40 100 6 16 16 0 47 -79 22 -54 38 -100 36 -103z"/>
<path d="M6820 2695 c0 -10 10 -15 33 -15 18 0 38 -5 45 -12 9 -9 12 -73 12
-228 0 -155 -3 -219 -12 -228 -7 -7 -27 -12 -45 -12 -23 0 -33 -5 -33 -15 0
-12 19 -15 110 -15 91 0 110 3 110 15 0 10 -10 15 -28 15 -61 0 -63 5 -60 220
l3 194 90 -222 c86 -213 90 -222 116 -222 30 0 31 2 150 323 l44 118 3 -192
c3 -208 0 -219 -49 -219 -19 0 -29 -5 -29 -15 0 -12 19 -15 115 -15 96 0 115
3 115 15 0 8 -8 15 -19 15 -39 0 -42 19 -39 246 l3 219 38 9 c20 5 37 15 37
23 0 10 -22 13 -89 13 l-89 0 -26 -67 c-14 -38 -50 -132 -79 -211 -30 -78 -56
-144 -59 -147 -2 -3 -43 91 -89 208 l-85 212 -97 3 c-82 2 -97 0 -97 -13z"/>
<path d="M8060 2695 c0 -8 9 -15 21 -15 11 0 29 -5 40 -10 18 -10 19 -23 19
-231 l0 -221 -30 -11 c-16 -6 -30 -17 -30 -24 0 -10 28 -13 115 -13 96 0 115
3 115 15 0 10 -10 15 -28 15 -46 0 -52 15 -52 123 l0 100 66 -6 c52 -4 72 -10
90 -28 23 -24 54 -119 54 -169 0 -50 3 -51 210 -48 144 2 194 6 198 16 2 7 -6
12 -21 12 -59 0 -57 -8 -57 240 l0 228 37 9 c20 4 38 14 41 21 3 10 -25 12
-124 10 -82 -2 -129 -7 -131 -14 -2 -6 13 -14 35 -18 34 -5 40 -10 46 -37 10
-50 7 -375 -4 -403 -21 -56 -123 -47 -136 12 -28 124 -45 152 -106 177 l-43
17 31 13 c16 7 43 27 58 46 25 29 28 39 24 86 -9 103 -54 123 -282 123 -132 0
-156 -2 -156 -15z m314 -47 c34 -31 42 -83 19 -128 -22 -43 -54 -60 -115 -60
l-48 0 0 105 0 105 59 0 c48 0 65 -5 85 -22z"/>
<path d="M8890 2697 c0 -9 14 -17 35 -21 l35 -7 0 -222 c0 -236 -2 -247 -47
-247 -14 0 -23 -6 -23 -15 0 -12 17 -15 95 -15 78 0 95 3 95 15 0 9 -9 15 -23
15 -13 0 -31 6 -40 13 -16 11 -17 32 -15 196 l3 184 155 -203 c85 -111 160
-209 166 -216 6 -8 19 -14 28 -14 14 0 16 25 16 244 0 265 2 276 56 276 15 0
24 6 24 15 0 12 -17 15 -95 15 -74 0 -95 -3 -95 -14 0 -8 15 -17 35 -20 44 -9
47 -24 43 -215 l-3 -144 -150 194 -151 194 -72 3 c-57 2 -72 0 -72 -11z"/>
</g>
</svg>
